<svg version="1.1" id="Layer_1" xmlns="http://www.w3.org/2000/svg" xmlns:xlink="http://www.w3.org/1999/xlink" x="0px" y="0px"
	 width="100%" viewBox="0 0 1024 624" enable-background="new 0 0 1024 624" xml:space="preserve">
<path fill="#000000" opacity="1.000000" stroke="none" 
	d="
M534.170227,419.062622 
	C536.835083,417.633606 539.136658,416.273621 541.564819,415.199707 
	C547.156799,412.726288 552.404297,413.363678 556.757385,417.783630 
	C567.551392,428.743683 580.662842,434.348267 595.909729,435.472076 
	C626.994507,437.763214 650.852173,421.005646 651.770630,388.120148 
	C651.889099,383.877350 651.786804,379.628357 651.786804,373.843384 
	C630.327820,395.078156 605.598389,399.865845 578.469543,393.692383 
	C551.312622,387.512451 532.446960,370.731140 520.784851,345.725800 
	C518.122864,346.287598 517.570984,348.443817 516.500000,349.994873 
	C502.490021,370.284576 484.989655,386.820221 462.397736,396.899017 
	C431.479584,410.692413 400.109039,411.623962 369.317017,396.246307 
	C354.573547,388.883392 342.890564,377.845276 334.490265,363.452881 
	C331.633331,358.558014 332.005798,354.325348 335.671875,350.235992 
	C343.301605,341.725311 353.060394,337.002930 364.007782,334.422241 
	C367.740143,333.542419 367.985016,336.792603 368.912994,338.835541 
	C376.826477,356.257965 390.910126,365.359406 409.302704,367.524628 
	C425.529541,369.434845 441.130554,366.213196 455.692108,358.504761 
	C486.772736,342.051636 507.423523,317.427612 516.182434,282.952118 
	C525.025024,248.147278 546.782532,225.695969 582.299438,218.458572 
	C604.191040,213.997650 625.531921,216.087372 644.007812,230.578568 
	C647.486938,233.307343 650.541992,236.576752 653.646851,239.461090 
	C656.114929,238.516571 656.286133,236.514267 657.083252,234.922623 
	C661.237305,226.628159 667.751770,221.896790 677.227417,221.761200 
	C681.726501,221.696808 686.229004,221.815735 690.726318,221.705582 
	C693.793030,221.630447 695.337463,222.700668 695.323059,226.016190 
	C695.249634,242.848877 695.268738,259.682129 695.311035,276.515015 
	C695.318176,279.356232 693.988342,281.673035 692.650269,283.942932 
	C682.070312,301.890137 667.467529,316.123932 651.081909,328.686371 
	C650.459778,329.163361 649.654968,329.402008 648.892151,329.772675 
	C647.289490,327.616486 649.005127,326.121094 649.535522,324.576691 
	C656.552856,304.144531 651.259949,281.558350 635.619141,268.412323 
	C621.416992,256.475525 604.896729,254.224213 587.712402,260.124603 
	C571.071167,265.838562 561.226135,278.194153 558.200073,295.507782 
	C554.681030,315.642242 559.074219,333.460724 575.863647,346.458649 
	C590.289429,357.626648 606.693359,356.921387 623.034424,351.912506 
	C639.108276,346.985504 652.378723,336.946747 664.862122,326.108765 
	C682.605469,310.704224 697.806152,293.112732 708.471741,271.930542 
	C712.912048,263.111908 716.376709,253.945587 718.769409,244.368805 
	C719.863037,239.991516 721.184998,235.695038 723.633240,231.845261 
	C727.691040,225.464645 733.582703,222.101883 741.065430,221.805359 
	C746.889587,221.574554 752.744934,222.009872 758.558594,221.671356 
	C763.343140,221.392731 764.597046,223.413223 764.436157,227.836441 
	C764.169678,235.159668 764.382629,242.500107 764.381104,249.833282 
	C764.371948,294.499329 764.368896,339.165344 764.341614,383.831390 
	C764.333862,396.537994 758.958801,402.075073 746.173462,402.379913 
	C739.347473,402.542664 732.511841,402.291077 725.684814,402.430542 
	C722.350464,402.498627 720.818176,401.375305 720.828613,397.857605 
	C720.905029,372.024933 720.883606,346.191986 720.885498,320.359100 
	C720.885864,315.550415 723.727234,311.901306 725.993347,308.064880 
	C730.727173,300.050446 735.501526,292.077118 737.241394,282.640076 
	C729.362122,297.420349 716.949707,308.686005 707.197510,322.000488 
	C699.077026,333.087341 695.019409,345.350128 695.158569,359.309082 
	C695.311035,374.592865 696.571960,389.974182 693.517944,405.160370 
	C685.883179,443.123993 660.616699,467.724701 622.326721,473.734863 
	C596.317566,477.817383 571.077087,474.984650 547.546448,462.449951 
	C536.994995,456.829254 527.934448,449.304382 521.701599,438.754303 
	C519.416382,434.886169 519.334167,431.851776 522.828491,428.614014 
	C526.377625,425.325623 529.852417,421.988434 534.170227,419.062622 
z"/>
<path fill="#000000" opacity="1.000000" stroke="none" 
	d="
M237.526672,219.234039 
	C272.352997,227.439285 297.639771,254.655777 303.211639,289.707642 
	C303.968414,294.468292 304.444031,299.273834 305.037323,304.060181 
	C305.919861,311.180359 304.480713,317.326263 299.257904,322.839600 
	C293.901337,328.494110 289.535736,335.049103 286.457825,342.643799 
	C288.292450,342.751495 288.979767,341.470673 289.774872,340.620728 
	C295.132996,334.892822 300.604492,329.216827 306.894592,324.571381 
	C316.835388,317.229736 320.222717,307.126770 321.996124,295.405731 
	C326.745239,264.017609 342.008026,239.412872 371.266205,225.252472 
	C401.067780,210.829071 445.457916,213.385864 471.897034,238.707321 
	C483.539307,249.857407 491.070007,263.313232 495.144684,278.791138 
	C496.839233,285.227936 498.353333,291.677582 498.417480,298.436432 
	C498.550903,312.499512 490.754974,322.427612 477.038696,324.999359 
	C473.118256,325.734436 469.152771,326.142731 465.121704,326.135010 
	C436.289551,326.079742 407.456757,326.025360 378.625092,326.165222 
	C347.025879,326.318542 318.083923,347.888885 308.779816,378.052948 
	C306.806274,384.451233 305.817322,391.037323 306.166046,397.747467 
	C306.356384,401.409271 304.678558,402.881012 301.184113,402.965424 
	C295.011047,403.114471 288.791107,403.309631 282.739960,402.136169 
	C272.575226,400.164978 266.454285,393.645874 263.778687,383.764282 
	C263.392914,382.339508 263.094208,380.891113 262.745331,379.411835 
	C260.686340,379.666748 260.324738,381.373322 259.482483,382.453400 
	C243.836090,402.518768 222.792175,408.712036 198.337067,406.704346 
	C157.776093,403.374268 128.917526,370.178314 123.682587,329.423950 
	C120.303406,303.116760 123.342735,277.739655 138.441452,255.138885 
	C155.223984,230.017670 179.336777,217.835846 209.323822,216.836624 
	C218.678787,216.524902 227.969742,217.002274 237.526672,219.234039 
M166.174667,306.661621 
	C165.761795,315.692474 166.116837,324.622223 169.322586,333.235260 
	C175.872223,350.832397 187.723404,362.649933 206.680359,365.376709 
	C224.873352,367.993530 240.151321,362.103577 251.409592,347.040009 
	C266.071686,327.422089 265.224335,293.454376 249.704941,274.510742 
	C240.962112,263.838837 229.847260,257.803314 216.084259,257.443359 
	C188.361206,256.718292 167.285995,277.280151 166.174667,306.661621 
M401.500000,292.074036 
	C417.654327,292.065613 433.809021,291.997284 449.962769,292.089966 
	C454.118164,292.113831 455.397583,290.645233 454.015198,286.642242 
	C452.545166,282.385529 451.131897,278.132446 448.721863,274.281586 
	C439.689606,259.849396 426.050964,253.901001 409.719421,254.586990 
	C392.159882,255.324615 378.542938,263.400635 370.512756,279.542450 
	C368.701599,283.183167 366.615997,286.901337 367.212921,292.074524 
	C378.362488,292.074524 389.431244,292.074524 401.500000,292.074036 
z"/>
<path fill="#000000" opacity="1.000000" stroke="none" 
	d="
M794.244629,385.786011 
	C792.264587,383.970428 790.437744,382.495148 788.858765,380.790375 
	C783.955078,375.495911 783.303101,369.646393 786.924194,363.377258 
	C789.787170,358.420654 793.656128,354.262329 797.926147,350.514954 
	C804.422241,344.814056 808.507751,344.716400 815.011353,350.463837 
	C824.031128,358.434875 834.000427,364.511078 845.860229,367.156433 
	C856.096497,369.439697 866.319153,369.659790 876.455994,366.652100 
	C881.522278,365.148895 886.026367,362.669098 888.859314,357.976654 
	C893.403992,350.448730 890.884216,341.778656 882.729980,337.105408 
	C874.790894,332.555603 865.817444,331.134277 857.089844,329.062439 
	C844.625793,326.103607 831.984619,323.850220 820.224976,318.409729 
	C801.954224,309.956940 790.747864,296.400543 789.704041,275.785675 
	C788.538208,252.763260 798.162964,235.077377 819.151978,225.805222 
	C854.011841,210.405487 887.963074,213.219360 919.518433,235.367310 
	C929.351685,242.268997 929.844543,249.073700 922.434753,258.690216 
	C921.824890,259.481689 921.226074,260.284912 920.568970,261.036224 
	C910.034851,273.081970 907.704407,273.361511 894.555786,264.569153 
	C880.598816,255.236267 865.337952,252.100311 848.830933,255.281403 
	C845.703186,255.884171 842.783142,257.117493 840.056030,258.779755 
	C829.954834,264.936829 830.153931,277.145233 840.520325,282.948334 
	C847.002136,286.576843 854.211426,288.063507 861.386963,289.555695 
	C875.572388,292.505676 889.781006,295.384644 903.106506,301.341827 
	C919.622314,308.725250 931.567932,320.319489 934.092590,338.875549 
	C937.990601,367.525970 926.242249,389.552216 899.144958,399.760895 
	C862.354004,413.621552 826.898804,409.561951 794.244629,385.786011 
z"/>
<path fill="#000000" opacity="1.000000" stroke="none" 
	d="
M715.073242,175.958008 
	C715.884216,164.393600 720.538208,155.794113 731.264038,151.300247 
	C743.029602,146.370789 756.132385,149.291306 763.938782,158.511505 
	C771.134583,167.010483 771.918640,179.958954 765.827637,189.704742 
	C759.775024,199.389114 747.542419,203.837463 735.186218,200.696686 
	C722.609070,197.499725 716.530212,188.827682 715.073242,175.958008 
z"/>
</svg>